<svg width="139" height="88" viewBox="0 0 139 88" fill="none" xmlns="http://www.w3.org/2000/svg">
<rect x="48" width="43" height="43" rx="6.93135" fill="white" fill-opacity="0.08"/>
<path d="M73.384 5.35311C74.038 4.50313 75.3964 4.92535 75.4533 5.99624L76.0645 17.5033C76.0823 17.84 76.2464 18.1521 76.5137 18.3576L85.6469 25.384C86.4968 26.038 86.0746 27.3964 85.0037 27.4533L73.4967 28.0645C73.16 28.0823 72.8479 28.2464 72.6423 28.5136L65.6159 37.6469C64.962 38.4968 63.6036 38.0746 63.5467 37.0037L62.9355 25.4967C62.9176 25.16 62.7536 24.8479 62.4863 24.6423L53.3531 17.6159C52.5031 16.962 52.9254 15.6036 53.9962 15.5467L65.5033 14.9355C65.84 14.9176 66.1521 14.7536 66.3577 14.4863L73.384 5.35311Z" fill="white"/>
<path d="M5.17022 80H2.42622V59.756H5.17022L15.5302 75.408V59.756H18.2742V80H15.5302L5.17022 64.348V80ZM28.4487 80.336C24.4167 80.336 21.6447 77.424 21.6447 73.168C21.6447 68.884 24.3607 65.916 28.3367 65.916C32.2287 65.916 34.7767 68.604 34.7767 72.664V73.644L24.1927 73.672C24.3887 76.556 25.9007 78.152 28.5047 78.152C30.5487 78.152 31.8927 77.312 32.3407 75.744H34.8047C34.1327 78.684 31.8367 80.336 28.4487 80.336ZM28.3367 68.128C26.0407 68.128 24.5847 69.5 24.2487 71.908H32.1447C32.1447 69.64 30.6607 68.128 28.3367 68.128ZM40.1917 80L35.7117 66.308H38.4277L40.6957 73.42C41.0037 74.428 41.2837 75.464 41.5357 76.668C41.7597 75.464 42.1237 74.316 42.4317 73.42L44.7277 66.308H47.4157L49.6837 73.42C49.9077 74.092 50.3557 75.688 50.5797 76.668C50.8037 75.576 51.0557 74.624 51.4477 73.42L53.7437 66.308H56.4877L51.8117 80H49.3197L46.9397 72.664C46.4917 71.292 46.2117 70.228 46.0717 69.472C45.9317 70.144 45.6797 71.04 45.1757 72.692L42.7957 80H40.1917ZM57.4324 76.024H59.9524C59.9524 77.424 61.0164 78.264 62.7524 78.264C64.6004 78.264 65.6644 77.508 65.6644 76.248C65.6644 75.324 65.2164 74.764 63.7884 74.4L61.3804 73.84C58.9444 73.252 57.7964 72.048 57.7964 70.032C57.7964 67.512 59.9244 65.916 62.9484 65.916C65.9444 65.916 67.9044 67.596 67.9604 70.2H65.4404C65.3844 68.828 64.4604 67.96 62.8644 67.96C61.2124 67.96 60.2884 68.688 60.2884 69.948C60.2884 70.872 60.9604 71.488 62.3044 71.824L64.7124 72.412C67.0364 72.972 68.1844 74.036 68.1844 76.08C68.1844 78.684 65.9444 80.336 62.6964 80.336C59.4764 80.336 57.4324 78.628 57.4324 76.024ZM87.6075 80.308C81.8395 80.308 78.0035 76.164 78.0035 69.892C78.0035 63.648 81.9515 59.42 87.7475 59.42C92.3115 59.42 95.8115 62.136 96.5675 66.28H93.6275C92.8715 63.648 90.6035 62.052 87.6635 62.052C83.5755 62.052 80.8875 65.132 80.8875 69.864C80.8875 74.596 83.5755 77.676 87.6635 77.676C90.6315 77.676 92.9835 76.08 93.7395 73.588H96.6515C95.7835 77.62 92.1715 80.308 87.6075 80.308ZM98.6721 73.14C98.6721 68.912 101.696 65.944 105.812 65.944C109.9 65.944 112.924 68.912 112.924 73.14C112.924 77.368 109.9 80.336 105.812 80.336C101.696 80.336 98.6721 77.368 98.6721 73.14ZM101.332 73.14C101.332 75.996 103.152 77.984 105.812 77.984C108.444 77.984 110.292 75.996 110.292 73.14C110.292 70.284 108.444 68.296 105.812 68.296C103.152 68.296 101.332 70.284 101.332 73.14ZM123.678 66.196V68.604H122.502C120.01 68.604 118.47 70.116 118.47 72.748V80H115.838V66.336H118.302L118.47 68.408C119.03 66.98 120.402 66.028 122.278 66.028C122.754 66.028 123.146 66.084 123.678 66.196ZM131.562 80.336C127.53 80.336 124.758 77.424 124.758 73.168C124.758 68.884 127.474 65.916 131.45 65.916C135.342 65.916 137.89 68.604 137.89 72.664V73.644L127.306 73.672C127.502 76.556 129.014 78.152 131.618 78.152C133.662 78.152 135.006 77.312 135.454 75.744H137.918C137.246 78.684 134.95 80.336 131.562 80.336ZM131.45 68.128C129.154 68.128 127.698 69.5 127.362 71.908H135.258C135.258 69.64 133.774 68.128 131.45 68.128Z" fill="white"/>
</svg>
