<svg width="20" height="20" viewBox="0 0 20 20" fill="none" xmlns="http://www.w3.org/2000/svg">
<path d="M8.59995 4.94169C8.59995 5.10003 8.54162 5.25836 8.41662 5.38336L3.79995 10L8.41662 14.6167C8.65828 14.8584 8.65828 15.2584 8.41662 15.5C8.17495 15.7417 7.77495 15.7417 7.53328 15.5L2.47495 10.4417C2.23328 10.2 2.23328 9.80002 2.47495 9.55836L7.53328 4.50002C7.77495 4.25836 8.17495 4.25836 8.41662 4.50002C8.54162 4.61669 8.59995 4.78336 8.59995 4.94169Z" fill="#475569"/>
<path d="M17.7083 10C17.7083 10.3417 17.425 10.625 17.0833 10.625H3.05835C2.71668 10.625 2.43335 10.3417 2.43335 10C2.43335 9.65833 2.71668 9.375 3.05835 9.375H17.0833C17.425 9.375 17.7083 9.65833 17.7083 10Z" fill="#475569"/>
</svg>
