<svg width="20" height="20" viewBox="0 0 20 20" fill="none" xmlns="http://www.w3.org/2000/svg">
<path d="M11.4 15.0583C11.4 14.9 11.4584 14.7416 11.5834 14.6166L16.2 9.99998L11.5834 5.38331C11.3417 5.14164 11.3417 4.74164 11.5834 4.49998C11.825 4.25831 12.225 4.25831 12.4667 4.49998L17.525 9.55831C17.7667 9.79998 17.7667 10.2 17.525 10.4416L12.4667 15.5C12.225 15.7416 11.825 15.7416 11.5834 15.5C11.4584 15.3833 11.4 15.2166 11.4 15.0583Z" fill="white"/>
<path d="M2.29165 10C2.29165 9.65833 2.57498 9.375 2.91665 9.375H16.9417C17.2833 9.375 17.5667 9.65833 17.5667 10C17.5667 10.3417 17.2833 10.625 16.9417 10.625H2.91665C2.57498 10.625 2.29165 10.3417 2.29165 10Z" fill="white"/>
</svg>
