<svg width="22" height="22" viewBox="0 0 22 22" fill="none" xmlns="http://www.w3.org/2000/svg">
<path d="M21.7079 11.2305C21.7079 10.5546 21.6455 9.91298 21.5385 9.28842H11.4659V13.147H17.2331C16.9746 14.4132 16.217 15.4826 15.0938 16.2099V18.7765H18.5346C20.5491 16.9884 21.7079 14.3533 21.7079 11.2305Z" fill="#4285F4"/>
<path d="M11.469 21.2625C14.3571 21.2625 16.7728 20.3385 18.5377 18.7729L15.097 16.2062C14.1343 16.8222 12.9131 17.1986 11.469 17.1986C8.67899 17.1986 6.31682 15.3934 5.47001 12.9551H1.9223V15.5987C3.67833 18.9525 7.28843 21.2625 11.469 21.2625Z" fill="#34A853"/>
<path d="M5.46651 12.9573C5.24367 12.3413 5.12779 11.6825 5.12779 10.9981C5.12779 10.3136 5.25258 9.65484 5.46651 9.03884V6.39517H1.91881C1.18787 7.78117 0.768921 9.33828 0.768921 10.9981C0.768921 12.6578 1.18787 14.2149 1.91881 15.6009L5.46651 12.9573Z" fill="#FBBC05"/>
<path d="M11.469 4.79436C13.0468 4.79436 14.4552 5.31625 15.5694 6.33436L18.6179 3.40836C16.7728 1.74858 14.3571 0.730469 11.469 0.730469C7.28843 0.730469 3.67833 3.04047 1.9223 6.39425L5.47001 9.03791C6.31682 6.59958 8.67899 4.79436 11.469 4.79436Z" fill="#EA4335"/>
</svg>
