<svg width="173" height="173" viewBox="0 0 173 173" fill="none" xmlns="http://www.w3.org/2000/svg">
<path d="M86.0834 170.667C97.193 170.68 108.196 168.499 118.46 164.247C128.724 159.996 138.046 153.758 145.892 145.892C153.758 138.046 159.996 128.724 164.247 118.46C168.499 108.196 170.68 97.193 170.667 86.0834C170.68 74.9738 168.499 63.9709 164.247 53.707C159.996 43.443 153.758 34.1204 145.892 26.2745C138.046 18.409 128.724 12.1712 118.46 7.91958C108.196 3.66798 97.193 1.48636 86.0834 1.50006C74.9738 1.48636 63.9709 3.66798 53.707 7.91958C43.443 12.1712 34.1204 18.409 26.2745 26.2745C18.409 34.1204 12.1712 43.443 7.91958 53.707C3.66798 63.9709 1.48636 74.9738 1.50006 86.0834C1.48636 97.193 3.66798 108.196 7.91958 118.46C12.1712 128.724 18.409 138.046 26.2745 145.892C34.1204 153.758 43.443 159.996 53.707 164.247C63.9709 168.499 74.9738 170.68 86.0834 170.667Z" stroke="white" stroke-width="3" stroke-linejoin="round"/>
<path d="M52.25 86.082L77.625 111.457L128.375 60.707" stroke="white" stroke-width="3" stroke-linecap="round" stroke-linejoin="round"/>
</svg>
