<svg width="17" height="17" viewBox="0 0 17 17" fill="none" xmlns="http://www.w3.org/2000/svg">
<path d="M9.17838 0.67362C10.1516 -0.591465 12.1735 0.0369457 12.2581 1.63084L12.4651 5.52745C12.4917 6.02856 12.7359 6.49304 13.1337 6.79903L16.2264 9.17836C17.4915 10.1516 16.8631 12.1735 15.2692 12.2581L11.3726 12.4651C10.8715 12.4917 10.407 12.7359 10.101 13.1337L7.72169 16.2264C6.74843 17.4915 4.72659 16.8631 4.64193 15.2692L4.43496 11.3726C4.40834 10.8715 4.16413 10.407 3.76639 10.101L0.673635 7.72168C-0.591449 6.74842 0.036961 4.72657 1.63086 4.64191L5.52746 4.43494C6.02858 4.40833 6.49306 4.16412 6.79905 3.76638L9.17838 0.67362Z" fill="#071A27"/>
</svg>
